<?xml version="1.0" encoding="utf-8"?>
<!-- Generator: Adobe Illustrator 23.0.3, SVG Export Plug-In . SVG Version: 6.00 Build 0)  -->
<svg version="1.1" id="Ebene_1" xmlns="http://www.w3.org/2000/svg" xmlns:xlink="http://www.w3.org/1999/xlink" x="0px" y="0px"
	 viewBox="0 0 260 96.87" style="enable-background:new 0 0 260 96.87;" xml:space="preserve">
<style type="text/css">
	.st0{fill:#D42B6A;}
	.st1{fill:#FFFFFF;}
</style>
<g>
	<g>
		<polygon class="st0" points="39.92,51.01 1.83,51.01 0,46.63 45.88,0.01 49.53,0 65.05,15.52 61.41,19.15 47.73,5.47 7.97,45.87 
			39.92,45.87 		"/>
	</g>
	<path class="st1" d="M91.18,33.48v34.33h-5.13V33.48h-9.19v-5.1h23.51v5.1H91.18z"/>
	<path class="st1" d="M127.56,28.38v5.1h-16.14v14.91h14.8v5.1h-14.8v9.2h16.14v5.13h-21.25V28.38H127.56z"/>
	<path class="st1" d="M168.79,62.41c-4.06,3.88-8.7,5.82-13.93,5.82c-5.57,0-10.32-1.96-14.24-5.89c-3.93-3.93-5.89-8.67-5.89-14.24
		c0-5.55,1.96-10.3,5.89-14.25c3.93-3.94,8.67-5.91,14.24-5.91c5.21,0,10.15,2.13,14.81,6.38l-3.82,3.48
		c-3.52-3.12-7.18-4.68-10.99-4.68c-4.12,0-7.65,1.46-10.58,4.39c-2.93,2.92-4.4,6.46-4.4,10.6c0,4.16,1.47,7.7,4.4,10.62
		c2.93,2.92,6.46,4.39,10.58,4.39c3.55,0,6.49-0.94,8.82-2.81v-11.9h5.1V62.41z"/>
	<path class="st1" d="M180.45,67.81H175l14.34-39.43h2.76l14.34,39.43h-5.42l-10.3-28.29L180.45,67.81z M190.73,39.52"/>
	<path class="st1" d="M75.57,62.71v5.1H52.06v-5.1h9.19V28.38h5.13v34.33H75.57z"/>
	<g>
		<polygon class="st0" points="210.47,96.87 194.95,81.36 198.59,77.72 212.27,91.41 252.03,51.01 220.07,51.01 220.07,45.87 
			258.17,45.87 260,50.24 214.12,96.86 		"/>
	</g>
</g>
</svg>
