<?xml version="1.0" encoding="utf-8"?>
<!-- Generator: Adobe Illustrator 16.0.3, SVG Export Plug-In . SVG Version: 6.00 Build 0)  -->
<!DOCTYPE svg PUBLIC "-//W3C//DTD SVG 1.1//EN" "http://www.w3.org/Graphics/SVG/1.1/DTD/svg11.dtd">
<svg version="1.1" id="E_angepasst" xmlns="http://www.w3.org/2000/svg" xmlns:xlink="http://www.w3.org/1999/xlink" x="0px"
	 y="0px" width="250px" height="93.158px" viewBox="625 703.421 250 93.158" enable-background="new 625 703.421 250 93.158"
	 xml:space="preserve">
<g>
	<g>
		<polygon fill="#D42A69" points="663.387,752.465 626.758,752.465 625,748.263 669.114,703.435 672.63,703.421 687.545,718.336 
			684.056,721.838 670.899,708.681 632.664,747.521 663.387,747.521 		"/>
	</g>
	<path d="M712.678,735.614v33.016h-4.931v-33.016h-8.845v-4.903h22.606v4.903H712.678z"/>
	<path d="M747.658,730.71v4.903h-15.52v14.338h14.229v4.903h-14.229v8.844h15.52v4.931h-20.436V730.71H747.658z"/>
	<path d="M787.309,763.438c-3.9,3.735-8.364,5.59-13.391,5.59c-5.356,0-9.916-1.882-13.693-5.658
		c-3.776-3.776-5.658-8.337-5.658-13.693c0-5.342,1.882-9.902,5.658-13.693c3.777-3.791,8.337-5.686,13.693-5.686
		c5.013,0,9.751,2.046,14.242,6.139l-3.667,3.337c-3.379-3.008-6.908-4.504-10.575-4.504c-3.97,0-7.361,1.401-10.177,4.216
		s-4.23,6.208-4.23,10.19c0,3.997,1.415,7.403,4.23,10.218s6.207,4.216,10.177,4.216c3.42,0,6.235-0.906,8.487-2.705v-11.44h4.903
		V763.438z"/>
	<path d="M798.516,768.63h-5.233l13.789-37.919h2.651l13.788,37.919h-5.219l-9.902-27.207L798.516,768.63z"/>
	<path d="M697.667,763.728v4.902h-22.606v-4.902h8.845V730.71h4.93v33.017H697.667L697.667,763.728z"/>
	<g>
		<polygon fill="#D42A69" points="827.384,796.579 812.455,781.65 815.957,778.162 829.115,791.318 867.336,752.465 
			836.614,752.465 836.614,747.521 873.242,747.521 875,751.737 830.887,796.565 		"/>
	</g>
</g>
</svg>
