<?xml version="1.0" standalone="no"?>
<!DOCTYPE svg PUBLIC "-//W3C//DTD SVG 20010904//EN"
 "http://www.w3.org/TR/2001/REC-SVG-20010904/DTD/svg10.dtd">
<svg version="1.0" xmlns="http://www.w3.org/2000/svg"
 width="951.000000pt" height="951.000000pt" viewBox="0 0 951.000000 951.000000"
 preserveAspectRatio="xMidYMid meet">
<metadata>
Created by potrace 1.11, written by Peter Selinger 2001-2013
</metadata>
<g transform="translate(0.000000,951.000000) scale(0.100000,-0.100000)"
fill="#000000" stroke="none">
<path d="M4089 9089 c-228 -232 -486 -494 -574 -584 -88 -90 -365 -372 -616
-627 -251 -255 -530 -538 -620 -629 -90 -92 -363 -369 -605 -615 -243 -247
-510 -519 -594 -604 -124 -126 -1058 -1075 -1075 -1092 -3 -3 35 -101 84 -219
l89 -214 1871 -2 1871 -1 -2 251 -3 252 -1558 1 c-857 1 -1559 3 -1561 5 -4 4
179 192 784 807 173 175 522 530 775 787 253 257 530 538 615 625 85 86 360
365 610 620 250 254 601 611 780 792 l325 329 671 -671 671 -671 179 180 180
179 -761 761 -761 761 -180 0 -180 0 -415 -421z"/>
<path d="M5565 5002 c-3 -3 -5 -117 -5 -253 l0 -247 1558 0 c856 0 1559 -3
1560 -7 2 -4 -180 -194 -405 -422 -224 -229 -470 -479 -547 -557 -76 -77 -349
-355 -606 -616 -257 -261 -544 -552 -636 -647 -93 -94 -374 -380 -625 -635
-251 -255 -516 -524 -588 -598 -304 -311 -475 -479 -480 -475 -3 3 -306 305
-672 671 l-665 665 -177 -176 c-97 -97 -177 -179 -177 -183 0 -4 341 -348 758
-764 l758 -758 180 0 181 0 267 272 c148 150 478 486 735 747 256 261 522 531
591 601 69 70 346 352 616 626 271 274 553 562 629 639 75 77 356 362 624 634
267 272 546 555 619 630 74 75 199 202 278 282 l145 146 -37 89 c-20 49 -44
107 -54 129 -10 22 -34 78 -54 125 l-35 85 -1865 1 c-1026 1 -1868 -1 -1871
-4z"/>
</g>
</svg>
